<svg width="27" height="40" viewBox="0 0 27 40" fill="none" xmlns="http://www.w3.org/2000/svg">
<path d="M7.37325 34.52C5.89325 34.52 4.69325 34 3.77325 32.96C2.89325 31.88 2.45325 30.48 2.45325 28.76C2.45325 26.52 3.11325 24.44 4.43325 22.52C5.75325 20.56 7.39325 19.1 9.35325 18.14L9.71325 18.86C8.87325 19.5 8.13325 20.32 7.49325 21.32C6.85325 22.32 6.39325 23.56 6.11325 25.04L7.37325 25.34C8.77325 25.66 9.85325 26.26 10.6133 27.14C11.4133 27.98 11.8133 29 11.8133 30.2C11.8133 31.48 11.3733 32.52 10.4933 33.32C9.65325 34.12 8.61325 34.52 7.37325 34.52ZM20.0333 34.52C18.5533 34.52 17.3533 34 16.4333 32.96C15.5533 31.88 15.1133 30.48 15.1133 28.76C15.1133 26.52 15.7733 24.44 17.0933 22.52C18.4133 20.56 20.0533 19.1 22.0133 18.14L22.3733 18.86C21.5333 19.5 20.7933 20.32 20.1533 21.32C19.5133 22.32 19.0533 23.56 18.7733 25.04L20.0333 25.34C21.4333 25.66 22.5133 26.26 23.2733 27.14C24.0733 27.98 24.4733 29 24.4733 30.2C24.4733 31.48 24.0333 32.52 23.1533 33.32C22.3133 34.12 21.2733 34.52 20.0333 34.52Z" fill="#595959"/>
</svg>
